<?xml version="1.0" standalone="no"?><svg xmlns:xlink="http://www.w3.org/1999/xlink" xmlns="http://www.w3.org/2000/svg" viewBox="0 0 1000 875" preserveAspectRatio="xMaxYMax slice"><g transform="scale(2.0161290322580645)"><rect x="0" y="0" width="496" height="434" fill="#ffffff"/><path d="M 434 0 A 62 62 0 0 1  496 62 L 434 0 A 62 62 0 0 0 496 62" fill="#5be7c2"/><rect x="124" y="62" width="62" height="62" fill="#ffffff"/><path d="M 124 124 A 31 31 0 0 1  155 93 L 124 124 A 31 31 0 0 0 155 93" fill="#ced7f9"/><path d="M 248 124 A 62 62 0 0 1  310 62 L 248 124 A 62 62 0 0 0 310 62" fill="#dae0fa"/><path d="M 434 124 A 62 62 0 0 1  496 62 L 434 124 A 62 62 0 0 0 496 62" fill="#f5fefb"/><path d="M 248 124 A 62 62 0 0 1  310 186 L 248 124 A 62 62 0 0 0 310 186" fill="#cdf8ec"/><rect x="310" y="124" width="62" height="62" fill="#ffffff"/><rect x="372" y="124" width="62" height="62" fill="#ffffff"/><path d="M 403 155 A 31 31 0 0 1  434 186 L 403 155 A 31 31 0 0 0 434 186" fill="#3557e5"/><rect x="0" y="186" width="62" height="62" fill="#ffffff"/><path d="M 31 186 A 31 31 0 0 1  62 217 L 31 186 A 31 31 0 0 0 62 217" fill="#f0f2fd"/><path d="M 0 248 A 31 31 0 0 1  31 217 L 0 248 A 31 31 0 0 0 31 217" fill="#ffebf0"/><rect x="62" y="186" width="62" height="62" fill="#ffffff"/><path d="M 93 217 A 31 31 0 0 1  124 248 L 93 217 A 31 31 0 0 0 124 248" fill="#fff2f5"/><rect x="124" y="186" width="62" height="62" fill="#ffffff"/><path d="M 155 217 A 31 31 0 0 1  186 248 L 155 217 A 31 31 0 0 0 186 248" fill="#b6c2f6"/><rect x="372" y="186" width="62" height="62" fill="#ffffff"/><path d="M 372 186 A 31 31 0 0 1  403 217 L 372 186 A 31 31 0 0 0 403 217" fill="#2c50e4"/><path d="M 186 310 A 62 62 0 0 1  248 248 L 186 310 A 62 62 0 0 0 248 248" fill="#b9c5f6"/><path d="M 248 310 A 62 62 0 0 1  310 248 L 248 310 A 62 62 0 0 0 310 248" fill="#ff7394"/><path d="M 310 310 A 62 62 0 0 1  372 248 L 310 310 A 62 62 0 0 0 372 248" fill="#d6f9f0"/><rect x="310" y="310" width="62" height="62" fill="#ffffff"/><path d="M 372 310 A 62 62 0 0 1  434 372 L 372 310 A 62 62 0 0 0 434 372" fill="#cff8ed"/><path d="M 0 372 A 62 62 0 0 1  62 434 L 0 372 A 62 62 0 0 0 62 434" fill="#ff92ac"/><path d="M 434 434 A 62 62 0 0 1  496 372 L 434 434 A 62 62 0 0 0 496 372" fill="#41e4b8"/></g></svg>