<svg xmlns="http://www.w3.org/2000/svg" version="1.1" xmlns:xlink="http://www.w3.org/1999/xlink" xmlns:svgjs="http://svgjs.com/svgjs" width="1442" height="560" preserveAspectRatio="none" viewBox="0 0 1442 560">
    <g mask="url(&quot;#SvgjsMask1448&quot;)" fill="none">
        <rect width="1442" height="560" x="0" y="0" fill="url(#SvgjsLinearGradient1449)"></rect>
        <path d="M1442 0L1038.45 0L1442 140.74z" fill="rgba(255, 255, 255, .1)"></path>
        <path d="M1038.45 0L1442 140.74L1442 267.72L981.1800000000001 0z" fill="rgba(255, 255, 255, .075)"></path>
        <path d="M981.1800000000001 0L1442 267.72L1442 283.98L926.5500000000001 0z" fill="rgba(255, 255, 255, .05)"></path>
        <path d="M926.55 0L1442 283.98L1442 462.79L403.1099999999999 0z" fill="rgba(255, 255, 255, .025)"></path>
        <path d="M0 560L505.23 560L0 413.06z" fill="rgba(0, 0, 0, .1)"></path>
        <path d="M0 413.06L505.23 560L662.97 560L0 303.88z" fill="rgba(0, 0, 0, .075)"></path>
        <path d="M0 303.88L662.97 560L1093.97 560L0 301.1z" fill="rgba(0, 0, 0, .05)"></path>
        <path d="M0 301.1L1093.97 560L1117.58 560L0 210.08000000000004z" fill="rgba(0, 0, 0, .025)"></path>
    </g>
    <defs>
        <mask id="SvgjsMask1448">
            <rect width="1442" height="560" fill="#ffffff"></rect>
        </mask>
        <linearGradient x1="15.29%" y1="-39.38%" x2="84.71%" y2="139.38%" gradientUnits="userSpaceOnUse" id="SvgjsLinearGradient1449">
            <stop stop-color="#0e2a47" offset="0"></stop>
            <stop stop-color="rgba(165, 180, 198, 1)" offset="1"></stop>
        </linearGradient>
    </defs>
</svg>